<svg xmlns="http://www.w3.org/2000/svg" width="225" height="230" overflow="hidden"><defs><clipPath id="a"><path d="M528 246h225v230H528z"/></clipPath><clipPath id="b"><path d="M528 247h225v228H528z"/></clipPath><clipPath id="c"><path d="M528 247h225v228H528z"/></clipPath><clipPath id="d"><path d="M528 245h225v230H528z"/></clipPath><clipPath id="e"><path d="M528 245h225v230H528z"/></clipPath><clipPath id="f"><path d="M528 246h225v229H528z"/></clipPath><clipPath id="g"><path d="M528 246h225v229H528z"/></clipPath></defs><g clip-path="url(#a)" transform="translate(-528 -246)"><g clip-path="url(#b)"><g clip-path="url(#c)"><g clip-path="url(#d)"><g clip-path="url(#e)"><g clip-path="url(#f)"><g clip-path="url(#g)"><path fill="#3669B1" d="M640.508 473.799c-61.548 0-111.443-50.503-111.443-112.8 0-62.299 49.895-112.8 111.443-112.8 61.548 0 111.443 50.501 111.443 112.8 0 62.297-49.895 112.8-111.443 112.8m0-226.67c-62.131 0-112.498 50.982-112.498 113.87 0 62.888 50.367 113.867 112.498 113.867 62.131 0 112.498-50.979 112.498-113.867 0-62.888-50.367-113.87-112.498-113.87"/><path fill="#3669B1" d="m549.977 343.281-1.501-.236-.74 4.84-3.392-.533.672-4.388-1.444-.227-.672 4.388-3.28-.515.706-4.613-1.501-.236-.982 6.414 11.117 1.745ZM552.862 315.31l-2.156 4.51-4.355-2.132-.783 1.64 10.128 4.957.783-1.639-4.457-2.18 2.155-4.512 4.457 2.181.783-1.64-10.127-4.957-.784 1.639ZM591.888 281.767l1.539-.947-5.842-9.732-1.539.947ZM651.188 268.355l1.786.229 1.413-11.299-1.786-.228ZM737.012 358.331l2.375.925 1.24.33.002.047-1.232.361-2.35.99Zm6.985.775-11.423-4.51.026 2.016 2.942 1.146.05 3.842-2.907 1.229.026 2.014 11.3-4.826ZM681.099 264.699l-4.418 3.179-1.097-5.374-1.98-.788 1.646 7.354-1.862 4.796 1.676.667 1.863-4.797 6.152-4.248ZM538.599 364.204l.03-3.302 9.733.096.017-1.822-9.731-.096.033-3.301-1.52-.016-.08 8.425ZM661.053 259.912l3.167.797-2.35 9.558 1.747.44 2.35-9.558 3.165.797.366-1.493-8.079-2.033ZM619.134 270.208l-.407-1.48-4.661 1.31-.918-3.346 4.227-1.19-.392-1.425-4.227 1.19-.889-3.236 4.444-1.252-.406-1.48-6.18 1.737 3.014 10.972ZM732.094 350.184l1.501-.236-.739-4.839 3.392-.53.67 4.39 1.444-.227-.67-4.388 3.28-.513.705 4.613 1.502-.236-.98-6.414-11.118 1.74ZM709.723 283.19l-7.775 8.23 1.3 1.26 3.422-3.621 3.172 3.068 1.01-1.07-3.172-3.07 2.293-2.426 3.335 3.226 1.05-1.111ZM546.291 334.438c-2.28-.708-3.445-2.997-2.723-5.383.293-.961.757-1.684 1.466-2.315l-1.467-.846c-.846.916-1.328 1.728-1.68 2.888-.964 3.179.737 6.422 3.877 7.398 3.14.975 6.344-.746 7.308-3.925.312-1.03.42-1.762.335-2.915l-1.879-1.017a5.648 5.648 0 0 1-.001 3.205c-.722 2.385-2.955 3.618-5.236 2.91M569.004 295.668c1.158 1 1.263 2.626.258 3.819-1.003 1.192-2.606 1.342-3.764.341l-5.404-4.669-1.168 1.386 5.54 4.784c1.79 1.547 4.47 1.234 6.11-.712 1.64-1.946 1.522-4.673-.27-6.218l-5.54-4.785-1.169 1.388ZM737.522 329.473l.566 1.901a1.693 1.693 0 0 1-1.116 2.108 1.669 1.669 0 0 1-2.083-1.131l-.566-1.902Zm.934-2.19-10.771 3.29.52 1.744 4.738-1.447.344 1.152-3.78 4.666.615 2.062 3.836-4.88a3.14 3.14 0 0 0 3.556 1.314c1.668-.509 2.613-2.291 2.109-3.981ZM625.803 258.944l1.947-.25a1.674 1.674 0 0 1 1.87 1.46 1.688 1.688 0 0 1-1.446 1.892l-1.948.254Zm-1.978-1.293 1.426 11.295 1.786-.231-.628-4.97 1.18-.152 3.921 4.542 2.111-.273-4.12-4.635a3.201 3.201 0 0 0 1.866-3.331c-.222-1.751-1.802-2.989-3.53-2.765ZM728.642 306.098l-1.214-1.818-6.416-.83 4.025-2.752-1.005-1.51-9.324 6.374 1.008 1.51 4.112-2.811-1.768 6.324 1.353 2.027 1.93-7.451ZM581.425 282.948l1 1.198-.013.023-1.04-.234-9.119-1.631-.998.827 7.122 8.814 1.393-1.154-4.131-5.111-1-1.199.013-.023 1.04.235 9.678 1.608.655-.54-7.196-8.903-1.394 1.153ZM694.136 283.373c-1.834-1.299-2.244-3.906-.918-5.825 1.325-1.917 3.885-2.42 5.719-1.123 1.833 1.296 2.243 3.904.918 5.822-1.326 1.92-3.885 2.423-5.719 1.126m5.753-8.327a5.807 5.807 0 0 0-8.147 1.46c-1.851 2.679-1.206 6.37 1.442 8.245 2.647 1.874 6.295 1.22 8.146-1.46 1.852-2.68 1.206-6.37-1.44-8.245M724.77 319.793c-.972-2.038-.074-4.518 2.01-5.535 2.082-1.02 4.56-.192 5.532 1.846.973 2.04.074 4.517-2.008 5.535-2.084 1.02-4.562.19-5.534-1.846m9.04-4.421c-1.406-2.944-4.905-4.178-7.814-2.755-2.909 1.422-4.127 4.963-2.722 7.907 1.405 2.945 4.902 4.178 7.812 2.756 2.91-1.422 4.128-4.964 2.723-7.908M643.077 261.306c-.225-.107-.726-.347-1.49-.64-.764-.29-1.233-.95-1.225-1.616.008-.575.462-1.304 1.764-1.287a3.864 3.864 0 0 1 2.111.674l.359-1.617s-.936-.676-2.471-.696c-1.95-.025-3.496 1.015-3.52 3.044-.011.792.302 1.73 1.007 2.319.396.326.586.436 1.019.653.389.197.751.355 1.271.55.873.325 1.45.758 1.434 2.036-.013 1.131-1.252 1.61-2.114 1.599-1.508-.02-2.917-1.133-2.917-1.133l.272 2.06c.976.552 1.79.698 2.7.709 3.422.043 3.85-2.376 3.862-3.41.028-2.326-1.729-3.087-2.062-3.245M603.799 275.574l-.362-12.407-1.822.814.243 7.356.188 1.286-.04.019-.813-1.007-5.2-5.146-1.82.811 8.802 8.64ZM724.883 360.998c0 47.165-37.777 85.4-84.374 85.4-46.598 0-84.375-38.235-84.375-85.4 0-47.167 37.777-85.402 84.375-85.402 46.597 0 84.374 38.235 84.374 85.402"/><path fill="#FFF" d="M701.886 375.426c-.276-3.12-2.043-5.921-4.727-7.485l-11.874-6.939 11.874-6.94a9.652 9.652 0 0 0 4.727-7.486l2.02-22.619-20.362-9.543a9.462 9.462 0 0 0-8.772.403l-11.873 6.937V307.88a9.731 9.731 0 0 0-4.05-7.9l-18.34-13.075-18.343 13.079a9.732 9.732 0 0 0-4.037 7.896v13.876l-11.88-6.941a9.482 9.482 0 0 0-8.768-.4l-20.361 9.542 2.024 22.619c.278 3.12 2.043 5.918 4.722 7.486L595.742 361l-11.876 6.942c-2.679 1.564-4.444 4.362-4.722 7.485l-2.024 22.624 20.362 9.539a9.421 9.421 0 0 0 3.995.886 9.477 9.477 0 0 0 4.773-1.289l11.88-6.942v13.887c0 3.134 1.51 6.078 4.038 7.878l18.341 13.085 18.34-13.085a9.67 9.67 0 0 0 4.05-7.878v-13.884l11.876 6.939a9.465 9.465 0 0 0 8.769.403l20.362-9.54Z"/><path fill="#3669B1" d="M639.591 359.386v-21.869l-18.71 10.937ZM619.964 414.131a7.804 7.804 0 0 0 3.26 6.358l16.365 11.677v-44.464l-19.625 11.467ZM639.589 289.829l-16.363 11.67a7.865 7.865 0 0 0-3.262 6.378v38.967l19.625-11.473ZM641.425 337.515v21.869l18.711-10.932Z"/><path fill="#82AAD9" d="m641.426 432.167 16.365-11.678a7.806 7.806 0 0 0 3.261-6.357V399.17l-19.626-11.467ZM657.789 301.497l-16.363-11.67v45.543l19.627 11.472v-38.965a7.867 7.867 0 0 0-3.264-6.38"/><path fill="#0098D6" d="m598.25 316.096-18.171 8.517 38.049 22.232v-22.943l-12.795-7.482a7.652 7.652 0 0 0-7.083-.324M701.855 395.781l-1.807-20.187a7.801 7.801 0 0 0-3.811-6.044l-33.348-19.487v22.944ZM661.053 371.935v-21.873l-18.71 10.935ZM641.426 384.483l18.71-10.94-18.71-10.937Z"/><path fill="#69C3EF" d="M580.969 346.405a7.81 7.81 0 0 0 3.814 6.047l12.794 7.473 19.634-11.475-38.05-22.228ZM661.971 374.615h-.003l-19.626 11.475 33.34 19.484a7.643 7.643 0 0 0 7.085.324l18.168-8.51Z"/><path fill="#00BDD0" d="M619.963 350.06v21.873l18.711-10.939ZM639.589 384.483v-21.877l-18.71 10.937ZM619.045 374.615l-38.965 22.774 18.17 8.51a7.644 7.644 0 0 0 7.084-.325l33.339-19.484-19.627-11.475ZM663.805 348.451l19.636 11.474 12.793-7.473a7.807 7.807 0 0 0 3.813-6.046l1.808-20.184Z"/><path fill="#88D3E3" d="m580.969 375.593-1.807 20.187 12.943-7.563 26.024-15.211v-22.944L584.78 369.55a7.801 7.801 0 0 0-3.811 6.044M682.766 316.096a7.652 7.652 0 0 0-7.083.324l-12.795 7.481v22.944l38.05-22.232Z"/><path fill="#3669B1" d="m622.276 451.059-10.05-2.628-.504 1.972 9.008 2.357-.822 3.216-3.765-.986.569-2.224-2.168-.566-.568 2.225-3.991-1.047-.503 1.973 12.969 3.394.504-1.971-.916-.238 1.044-4.088a1.142 1.142 0 0 0-.807-1.389M617.165 462.298a2.32 2.32 0 0 1-2.848 1.666 2.355 2.355 0 0 1-1.694-2.854 2.322 2.322 0 0 1 2.849-1.665 2.356 2.356 0 0 1 1.693 2.853m-1.229-4.673c-2.347-.615-4.716.714-5.294 2.966-.574 2.253.862 4.58 3.21 5.194 2.347.614 4.718-.715 5.293-2.969.577-2.252-.86-4.577-3.209-5.191M600.578 443.571l-9.078-5.095-.976 1.781 8.138 4.567-1.537 2.806-8.964-5.03-.976 1.781 4.532 2.543-1.188 2.168-3.77-2.116-.978 1.784 8.27 4.64-1.817 3.315.942.529a1.118 1.118 0 0 0 1.531-.445l1.701-3.106c.3-.55.105-1.243-.438-1.547l-3.483-1.956 1.188-2.168 5.227 2.932.976-1.78-.827-.464 1.965-3.591a1.143 1.143 0 0 0-.438-1.548M715.787 431.889l-.687.656-7.166-7.642a1.113 1.113 0 0 0-1.588-.041l-6.858 6.585 1.386 1.477 6.075-5.834 6.555 6.991-1.146 1.1-3.905-4.165-1.57 1.509 3.905 4.163-1.174 1.13-3.904-4.167-1.57 1.507 3.905 4.167-1.537 1.474 1.385 1.478 9.28-8.91ZM669.726 447.957l-2.091.557 1.213 4.665-1.382.367-1.213-4.664-2.092.557 2.358 9.07-4.893 1.305-1.798-6.917 3.108-.827-.512-1.968-5.2 1.386 2.535 9.752c.159.607.774.97 1.375.81l5.899-1.57 1.098 4.223 1.004-.27c.6-.159.959-.781.801-1.388l-1.947-7.49 1.38-.37 2.236 8.591 1.004-.27c.6-.158.959-.781.801-1.388ZM645.382 461.999h-10.121v2.037h9.056v4.367h1.076a1.13 1.13 0 0 0 1.123-1.142c-.003-1.36-.004-2.765-.008-4.124a1.134 1.134 0 0 0-1.126-1.138M646.518 452.62h-2.201v8.544h1.075c.622 0 1.126-.51 1.126-1.138v-2.42h1.882v-2.075h-1.882ZM638.261 455.17c.96 0 1.736.84 1.736 1.875 0 1.036-.777 1.876-1.736 1.876-.96 0-1.736-.84-1.736-1.876 0-1.035.777-1.875 1.736-1.875m0 5.652c2.122 0 3.842-1.693 3.842-3.777 0-.824-.268-1.444-.724-1.891h1.273v-1.976h-3.253v-1.337h-2.276v1.337h-3.253v1.976h1.273c-.456.447-.724 1.067-.724 1.89 0 2.085 1.72 3.778 3.842 3.778M694.677 447.385a1.117 1.117 0 0 0-1.528-.44l-8.854 4.967.976 1.781 7.923-4.445 2.092 3.82.939-.528c.543-.306.74-.999.436-1.552-.654-1.186-1.33-2.413-1.984-3.603M692.758 446.207c.544-.304.74-.996.44-1.548l-1.161-2.118 1.646-.924-.994-1.814-1.645.922-1.395-2.541-1.925 1.079 4.093 7.473ZM685.445 447.745c-.839.471-1.92.118-2.417-.787-.496-.908-.217-2.022.622-2.492.837-.472 1.92-.12 2.417.787.496.904.217 2.02-.622 2.492m2.462-3.526c-.394-.721-.925-1.13-1.537-1.3l1.112-.621-.948-1.731-2.844 1.594-.642-1.169-1.988 1.117.639 1.17-2.846 1.597.947 1.73 1.114-.623c-.182.614-.122 1.287.273 2.008.998 1.823 3.312 2.459 5.168 1.417 1.856-1.043 2.55-3.365 1.552-5.189M580.961 430.114l-7.502 8.003.78.75a1.117 1.117 0 0 0 1.59-.041l3.235-3.452 1.367 1.31 1.411-1.505-1.365-1.31 2.082-2.222ZM569.59 432.383l-1.595-1.533-3.345 3.568a1.149 1.149 0 0 0 .043 1.608l7.342 7.053 1.385-1.477-6.562-6.303ZM572.285 430.461c-.696-.667-.69-1.817.016-2.568.704-.753 1.839-.818 2.535-.152.695.67.687 1.82-.016 2.571-.704.75-1.84.819-2.535.149m4.061 1.318c.561-.596.786-1.232.76-1.875l.924.886 1.346-1.435-2.36-2.268.91-.967-1.651-1.588-.909.97-2.36-2.266-1.347 1.435.924.887c-.635.008-1.25.269-1.81.867-1.418 1.512-1.32 3.937.22 5.417 1.54 1.478 3.935 1.448 5.353-.063M742.472 384.726l-12.075-2.744.243-1.095 12.075 2.744ZM741.77 376.231l-10.022-1.451.157-1.112 10.022 1.452ZM737.549 400.579l-11.501-4.62.41-1.044 11.502 4.618ZM738.169 392.08l-9.674-3.02.328-1.076 9.674 3.02ZM730.238 415.457l-10.647-6.384.567-.967 10.646 6.383ZM732.162 407.159l-9.088-4.516.49-1.01 9.089 4.516ZM723.899 421.103l-8.279-5.9.642-.918 8.277 5.898ZM538.543 384.726l-.243-1.095 12.075-2.744.243 1.095ZM539.246 376.231l-.157-1.111 10.022-1.452.157 1.112ZM543.466 400.579l-.411-1.046 11.504-4.62.41 1.045ZM542.848 392.08l-.328-1.075 9.674-3.021.328 1.075ZM550.779 415.457l-.566-.968 10.647-6.383.566.967ZM548.852 407.159l-.49-1.01 9.091-4.516.49 1.01ZM557.116 421.103l-.64-.92 8.278-5.898.642.918ZM1136.93 473.799c-61.548 0-111.443-50.503-111.443-112.802 0-62.3 49.895-112.8 111.443-112.8 61.548 0 111.443 50.5 111.443 112.8 0 62.299-49.895 112.802-111.443 112.802m0-226.67c-62.131 0-112.498 50.98-112.498 113.868s50.367 113.87 112.498 113.87c62.131 0 112.498-50.982 112.498-113.87 0-62.887-50.367-113.869-112.498-113.869"/><path fill="#3669B1" d="M1136.93 276.264c-46.16 0-83.713 38.01-83.713 84.732s37.553 84.733 83.713 84.733 83.711-38.011 83.711-84.733-37.551-84.732-83.711-84.732m0 170.804c-46.889 0-85.036-38.612-85.036-86.072s38.147-86.071 85.036-86.071c46.887 0 85.034 38.612 85.034 86.071 0 47.46-38.147 86.072-85.034 86.072"/><path fill="#3669B1" d="m1159.83 372.928-.001-22.41 33.158 19.378a7.562 7.562 0 0 1 3.693 5.85l1.765 19.75Zm19.599 33.067a7.369 7.369 0 0 1-6.852-.31l-33.162-19.378 19.175-11.203 38.614 22.565Zm-22.083 8.588a7.574 7.574 0 0 1-3.16 6.162l-16.012 11.42v-43.682l19.172 11.198Zm-19.172-51.41 17.933 10.48-17.933 10.481Zm19.173-12.656v20.96l-17.932-10.481Zm-19.173-12.654 17.933 10.48-17.933 10.48Zm0-48.034 16.013 11.42a7.576 7.576 0 0 1 3.159 6.163v38.756l-19.172-11.206Zm34.403 26.482a7.381 7.381 0 0 1 6.852-.314l17.775 8.33-37.374 21.84-.003-22.406Zm24.103 29.935a7.556 7.556 0 0 1-3.693 5.85l-12.747 7.451-19.17-11.205 37.375-21.841Zm-60.988 85.92-16.012-11.418a7.575 7.575 0 0 1-3.158-6.165v-14.902l19.17-11.198Zm-34.4-26.485a7.375 7.375 0 0 1-6.854.314l-17.776-8.326 38.616-22.565 19.174 11.203Zm-24.109-29.934a7.563 7.563 0 0 1 3.695-5.85l33.159-19.379.001 22.41-38.617 22.565Zm3.697-23.651a7.556 7.556 0 0 1-3.694-5.85l-1.765-19.745 37.376 21.841-19.169 11.205Zm13.558-36.099a7.384 7.384 0 0 1 6.853.314l12.75 7.45-.003 22.406-37.375-21.84Zm41.254 47.176v20.961l-17.931-10.482Zm-19.174-12.656 17.935 10.482-17.935 10.48Zm19.174-12.654v20.96l-17.931-10.482Zm-19.17-30.453c0-2.449 1.18-4.75 3.158-6.163l16.012-11.418v45.133l-19.172 11.205Zm82.631 68.112c-.292-3.25-2.132-6.164-4.925-7.799L1182.72 361l11.508-6.729c2.793-1.632 4.633-4.547 4.925-7.798l1.98-22.166a1.248 1.248 0 0 0-.158-.732 1.224 1.224 0 0 0-.55-.507l-19.953-9.346a9.84 9.84 0 0 0-9.137.417l-11.508 6.724-.002-13.45c0-3.266-1.573-6.335-4.211-8.216l-17.973-12.82a1.208 1.208 0 0 0-.708-.226c-.263 0-.506.083-.706.226l-17.974 12.82a10.1 10.1 0 0 0-4.211 8.216l-.001 13.45-11.51-6.724a9.837 9.837 0 0 0-9.136-.417l-19.954 9.346a1.22 1.22 0 0 0-.548.507 1.26 1.26 0 0 0-.16.732l1.982 22.166c.292 3.251 2.131 6.166 4.925 7.798l11.508 6.729-11.508 6.724c-2.794 1.635-4.633 4.549-4.925 7.799l-1.982 22.167c-.02.246.03.502.16.732.133.23.326.403.548.508l19.954 9.344a9.837 9.837 0 0 0 9.136-.416l11.51-6.727v13.453c0 3.265 1.575 6.335 4.212 8.218l17.974 12.817c.2.144.443.227.706.227.265 0 .508-.083.708-.227l17.973-12.817a10.102 10.102 0 0 0 4.21-8.218l.003-13.453 11.508 6.727a9.84 9.84 0 0 0 9.137.416l19.954-9.344a1.242 1.242 0 0 0 .707-1.24ZM1046.41 343.28l-1.501-.237-.74 4.84-3.392-.531.672-4.39-1.444-.226-.674 4.387-3.278-.514.706-4.612-1.501-.237-.982 6.413 11.115 1.746ZM1049.29 315.309l-2.155 4.508-4.355-2.131-.783 1.641 10.128 4.957.783-1.639-4.457-2.18 2.155-4.513 4.457 2.181.783-1.639-10.126-4.957-.785 1.639ZM1088.32 281.765l1.537-.947-5.842-9.73-1.537.946ZM1147.62 268.353l1.786.229 1.413-11.297-1.786-.23ZM1233.43 358.331l2.376.924 1.24.33.002.046-1.231.362-2.351.99Zm6.986.774-11.423-4.511.026 2.016 2.941 1.147.053 3.841-2.91 1.228.028 2.015 11.298-4.826ZM1177.52 264.698l-4.418 3.179-1.097-5.374-1.98-.788 1.646 7.354-1.862 4.796 1.676.665 1.863-4.796 6.151-4.249ZM1035.03 364.204l.03-3.303 9.732.096.018-1.822-9.731-.095.032-3.301-1.519-.017-.08 8.426ZM1157.48 259.911l3.167.797-2.35 9.558 1.747.44 2.35-9.558 3.164.797.367-1.493-8.079-2.033ZM1115.56 270.207l-.407-1.48-4.661 1.311-.918-3.346 4.227-1.192-.392-1.424-4.227 1.19-.889-3.236 4.443-1.252-.405-1.48-6.18 1.737 3.014 10.972ZM1228.53 350.184l1.501-.234-.739-4.84 3.392-.53.67 4.39 1.444-.227-.67-4.389 3.28-.513.705 4.613 1.5-.234-.979-6.414-11.119 1.74ZM1206.16 283.19l-7.775 8.23 1.3 1.26 3.422-3.622 3.17 3.069 1.013-1.07-3.173-3.07 2.292-2.427 3.336 3.227 1.05-1.111ZM1042.72 334.437c-2.28-.708-3.445-2.997-2.723-5.383.293-.961.756-1.684 1.465-2.315l-1.467-.846c-.845.916-1.327 1.728-1.679 2.887-.964 3.179.737 6.422 3.876 7.4 3.14.973 6.345-.747 7.31-3.926.311-1.03.42-1.762.334-2.916l-1.879-1.016a5.644 5.644 0 0 1-.001 3.204c-.724 2.385-2.955 3.618-5.236 2.911M1065.43 295.667c1.158 1 1.263 2.624.258 3.818-1.003 1.191-2.606 1.343-3.764.342l-5.405-4.669-1.168 1.386 5.54 4.784c1.791 1.546 4.47 1.234 6.11-.712 1.641-1.946 1.522-4.673-.27-6.22l-5.54-4.783-1.168 1.386ZM1233.95 329.472l.566 1.901a1.692 1.692 0 0 1-1.116 2.107 1.667 1.667 0 0 1-2.083-1.13l-.567-1.902Zm.934-2.19-10.771 3.288.52 1.746 4.738-1.447.344 1.151-3.78 4.667.615 2.062 3.836-4.881a3.139 3.139 0 0 0 3.555 1.315c1.67-.509 2.614-2.291 2.111-3.981ZM1122.23 258.944l1.947-.25a1.673 1.673 0 0 1 1.87 1.46 1.689 1.689 0 0 1-1.446 1.892l-1.948.252Zm-1.978-1.293 1.426 11.294 1.786-.232-.628-4.969 1.18-.152 3.921 4.543 2.11-.273-4.12-4.635a3.204 3.204 0 0 0 1.867-3.332c-.22-1.75-1.802-2.988-3.532-2.764ZM1225.07 306.097l-1.214-1.818-6.418-.83 4.027-2.752-1.005-1.51-9.324 6.374 1.008 1.51 4.112-2.812-1.768 6.325 1.352 2.027 1.932-7.451ZM1077.86 282.948l1 1.198-.013.022-1.04-.234-9.12-1.63-.997.827 7.122 8.814 1.393-1.156-4.131-5.11-1-1.198.013-.023 1.04.235 9.678 1.608.655-.541-7.196-8.902-1.394 1.153ZM1190.57 283.371c-1.834-1.297-2.244-3.905-.918-5.823 1.325-1.92 3.885-2.423 5.719-1.124 1.833 1.296 2.243 3.905.918 5.822-1.326 1.919-3.885 2.422-5.719 1.125m5.753-8.326a5.806 5.806 0 0 0-8.147 1.46c-1.851 2.679-1.207 6.37 1.442 8.244 2.647 1.874 6.295 1.221 8.146-1.458 1.852-2.681 1.206-6.373-1.44-8.246M1221.2 319.791c-.972-2.037-.074-4.516 2.01-5.535 2.082-1.018 4.56-.192 5.532 1.847.973 2.038.074 4.517-2.007 5.534-2.086 1.02-4.563.192-5.535-1.846m9.038-4.42c-1.404-2.945-4.903-4.178-7.812-2.756-2.907 1.424-4.127 4.964-2.722 7.907 1.406 2.946 4.902 4.18 7.812 2.756 2.911-1.422 4.13-4.963 2.722-7.907M1139.5 261.305c-.226-.107-.728-.348-1.49-.64-.766-.292-1.234-.95-1.226-1.616.007-.575.462-1.304 1.764-1.287a3.857 3.857 0 0 1 2.11.672l.36-1.616s-.936-.675-2.472-.695c-1.95-.025-3.495 1.015-3.52 3.042-.01.793.303 1.733 1.008 2.32.394.327.586.437 1.017.653.39.198.753.356 1.273.549.873.327 1.45.76 1.434 2.038-.012 1.13-1.253 1.61-2.114 1.6-1.508-.021-2.917-1.134-2.917-1.134l.271 2.06c.976.552 1.789.698 2.699.709 3.422.043 3.85-2.377 3.864-3.41.028-2.326-1.73-3.088-2.061-3.245M1100.23 275.574l-.361-12.407-1.822.813.244 7.357.187 1.286-.04.02-.813-1.008-5.199-5.148-1.821.813 8.802 8.64ZM1118.7 451.059l-10.05-2.631-.504 1.972 9.008 2.36-.823 3.216-3.764-.986.569-2.226-2.168-.564-.568 2.223-3.991-1.048-.504 1.976 12.97 3.394.504-1.971-.916-.241 1.043-4.085a1.138 1.138 0 0 0-.806-1.389M1113.59 462.298a2.322 2.322 0 0 1-2.847 1.666 2.357 2.357 0 0 1-1.693-2.856 2.327 2.327 0 0 1 2.848-1.666 2.357 2.357 0 0 1 1.692 2.856m-1.228-4.676c-2.346-.614-4.717.714-5.294 2.969-.575 2.253.861 4.58 3.21 5.194 2.348.614 4.717-.718 5.294-2.969.576-2.255-.861-4.58-3.21-5.194M1097.01 443.568l-9.078-5.092-.977 1.78 8.138 4.565-1.536 2.808-8.964-5.032-.976 1.781 4.532 2.546-1.189 2.167-3.769-2.115-.979 1.78 8.27 4.64-1.815 3.316.941.531a1.12 1.12 0 0 0 1.53-.444l1.702-3.107c.3-.553.105-1.242-.438-1.549l-3.483-1.954 1.188-2.167 5.227 2.932.976-1.78-.827-.467 1.965-3.588a1.147 1.147 0 0 0-.438-1.551M1212.22 431.887l-.687.659-7.166-7.642a1.111 1.111 0 0 0-1.588-.041l-6.858 6.585 1.385 1.477 6.076-5.834 6.555 6.99-1.147 1.101-3.904-4.165-1.568 1.509 3.904 4.163-1.175 1.127-3.905-4.167-1.569 1.51 3.904 4.166-1.536 1.474 1.385 1.479 9.28-8.913ZM1166.15 447.954l-2.091.56 1.213 4.662-1.382.37-1.214-4.667-2.091.56 2.358 9.068-4.893 1.304-1.8-6.915 3.11-.829-.512-1.968-5.202 1.386 2.537 9.752c.158.61.773.972 1.375.813l5.899-1.57 1.098 4.22 1.004-.267c.6-.16.959-.782.8-1.391l-1.945-7.49 1.377-.37 2.238 8.591 1.004-.266c.6-.16.957-.782.8-1.392ZM1141.81 461.999h-10.123v2.037h9.058v4.365h1.076a1.13 1.13 0 0 0 1.123-1.14l-.008-4.124a1.132 1.132 0 0 0-1.126-1.138M1142.95 452.62h-2.201v8.544h1.075c.622 0 1.126-.51 1.126-1.138v-2.42h1.882v-2.078h-1.882ZM1134.69 455.168c.96 0 1.736.84 1.736 1.875 0 1.039-.777 1.878-1.736 1.878-.96 0-1.736-.84-1.736-1.878 0-1.035.776-1.875 1.736-1.875m0 5.652c2.122 0 3.842-1.69 3.842-3.777 0-.821-.269-1.441-.724-1.888h1.273v-1.98h-3.253v-1.336h-2.276v1.337h-3.253v1.979h1.273c-.456.447-.724 1.067-.724 1.888 0 2.087 1.72 3.777 3.842 3.777M1191.1 447.385a1.118 1.118 0 0 0-1.528-.442l-8.854 4.967.976 1.783 7.923-4.445 2.092 3.817.939-.525c.543-.306.74-.999.436-1.552-.654-1.189-1.33-2.413-1.984-3.603M1189.18 446.207c.544-.307.74-.999.44-1.548l-1.161-2.118 1.646-.924-.994-1.814-1.645.922-1.395-2.544-1.925 1.08 4.093 7.475ZM1181.87 447.742c-.839.474-1.92.118-2.417-.787-.496-.906-.218-2.022.622-2.49.837-.474 1.92-.12 2.415.788.497.904.219 2.018-.62 2.489m2.462-3.526c-.394-.719-.925-1.13-1.537-1.297l1.112-.621-.948-1.732-2.844 1.595-.64-1.169-1.992 1.117.64 1.169-2.844 1.595.946 1.73 1.114-.62c-.182.614-.123 1.285.273 2.008.998 1.82 3.312 2.457 5.168 1.414 1.856-1.04 2.55-3.364 1.552-5.189M1077.39 430.114l-7.502 8.003.78.75a1.115 1.115 0 0 0 1.59-.044l3.235-3.45 1.367 1.31 1.41-1.504-1.364-1.312 2.08-2.22ZM1066.02 432.383l-1.595-1.533-3.343 3.568a1.146 1.146 0 0 0 .04 1.608l7.343 7.053 1.385-1.477-6.562-6.303ZM1068.72 430.461c-.696-.667-.69-1.817.016-2.568.704-.753 1.837-.821 2.535-.152.694.667.687 1.82-.016 2.571-.704.75-1.84.819-2.535.149m4.061 1.315c.561-.593.787-1.232.762-1.872l.922.886 1.346-1.435-2.359-2.268.909-.97-1.65-1.585-.911.97-2.359-2.266-1.347 1.435.925.887c-.636.008-1.251.269-1.812.865-1.417 1.514-1.32 3.939.22 5.419 1.54 1.478 3.936 1.448 5.354-.066M1238.9 384.726l-12.075-2.744.243-1.095 12.075 2.741ZM1238.19 376.231l-10.022-1.451.157-1.115 10.022 1.452ZM1233.97 400.579l-11.501-4.62.41-1.047 11.502 4.621ZM1234.6 392.077l-9.674-3.02.328-1.076 9.674 3.023ZM1226.66 415.455l-10.647-6.384.567-.964 10.646 6.38ZM1228.59 407.159l-9.088-4.516.49-1.01 9.089 4.516ZM1220.32 421.103l-8.279-5.9.643-.918 8.276 5.898ZM1034.97 384.726l-.243-1.098 12.075-2.74.243 1.094ZM1035.67 376.231l-.157-1.114 10.022-1.452.157 1.115ZM1039.89 400.579l-.411-1.046 11.504-4.62.41 1.045ZM1039.28 392.077l-.328-1.073 9.674-3.023.328 1.075ZM1047.2 415.455l-.566-.968 10.647-6.38.566.964ZM1045.28 407.159l-.49-1.01 9.091-4.516.49 1.01ZM1053.54 421.103l-.64-.92 8.278-5.898.642.918Z"/></g></g></g></g></g></g></g></svg>