<svg height="32" viewBox="0 0 32 32" width="32" xmlns="http://www.w3.org/2000/svg"><path d="m9.016 13.38c0 .396.047.714.12.948.083.234.193.49.339.766.057.089.078.172.078.245 0 .109-.068.214-.203.323l-.672.443c-.083.063-.177.094-.276.099-.109 0-.214-.052-.318-.151-.146-.151-.271-.318-.385-.5-.12-.203-.229-.411-.328-.625-.833.979-1.875 1.469-3.13 1.469-.896 0-1.609-.255-2.13-.766-.521-.516-.786-1.193-.786-2.047 0-.901.318-1.641.969-2.193s1.51-.828 2.609-.828c.359 0 .734.031 1.125.083.396.052.802.141 1.224.234v-.776c0-.807-.167-1.375-.5-1.703-.339-.328-.911-.49-1.734-.49-.37 0-.755.042-1.151.135-.391.099-.776.214-1.146.365-.125.057-.25.099-.375.141-.052.016-.109.026-.167.031-.151 0-.224-.109-.224-.333v-.521c0-.167.021-.297.073-.37.078-.099.182-.177.297-.224.375-.193.818-.354 1.339-.479.547-.141 1.104-.208 1.661-.203 1.271 0 2.193.286 2.792.865.583.573.88 1.443.88 2.615v3.448zm-4.318 1.62c.349 0 .714-.063 1.094-.193.385-.125.724-.359 1.01-.677.172-.203.302-.427.365-.682s.104-.568.104-.927v-.448c-.323-.078-.646-.141-.979-.182-.328-.042-.661-.063-1-.063-.714 0-1.234.141-1.583.427-.354.286-.521.693-.521 1.224 0 .5.125.87.391 1.125.255.266.63.396 1.12.396zm8.547 1.151c-.193 0-.323-.031-.406-.109-.083-.063-.161-.214-.224-.411l-2.5-8.229c-.047-.141-.083-.281-.094-.427 0-.172.083-.266.25-.266h1.047c.203 0 .339.031.411.104.089.063.151.214.214.417l1.792 7.047 1.661-7.047c.052-.214.115-.354.198-.417.13-.078.276-.115.427-.104h.849c.203 0 .344.031.427.104.083.063.161.214.203.417l1.682 7.13 1.839-7.13c.068-.214.141-.354.214-.417.125-.078.271-.115.417-.104h.99c.172 0 .266.083.266.266 0 .052-.01.104-.021.172-.016.089-.042.177-.073.266l-2.568 8.224c-.063.214-.135.354-.224.417-.12.078-.26.115-.401.104h-.917c-.203 0-.339-.031-.427-.104-.083-.073-.156-.214-.198-.427l-1.651-6.865-1.641 6.854c-.052.214-.115.354-.203.427-.083.073-.234.104-.427.104zm13.672.287c-.552 0-1.104-.068-1.635-.193s-.948-.266-1.224-.427c-.172-.094-.286-.198-.328-.297-.042-.094-.068-.193-.068-.297v-.542c0-.224.089-.333.245-.333.063 0 .13.01.193.031.063.026.161.068.266.109.365.161.755.286 1.172.37.427.089.839.13 1.266.13.672 0 1.193-.12 1.552-.354.354-.214.568-.599.557-1.01.005-.276-.099-.542-.286-.745-.193-.198-.557-.38-1.078-.552l-1.542-.479c-.776-.245-1.354-.604-1.703-1.083-.344-.443-.531-.984-.536-1.547 0-.448.099-.839.292-1.182.193-.339.448-.635.766-.87.318-.245.682-.427 1.104-.552.427-.13.875-.182 1.344-.182.234 0 .479.01.714.042.245.031.469.073.693.12.208.052.411.104.604.167s.344.13.448.193c.125.063.234.156.318.266.073.104.104.229.099.354v.5c0 .224-.089.339-.245.339-.146-.016-.281-.057-.406-.125-.641-.286-1.339-.427-2.042-.417-.609 0-1.089.094-1.417.297-.333.203-.5.51-.5.948 0 .297.104.552.318.755s.609.406 1.172.589l1.51.474c.766.245 1.323.589 1.651 1.026.328.432.49.932.49 1.49 0 .453-.099.87-.276 1.234-.193.359-.448.677-.776.938-.333.266-.724.453-1.182.594-.479.146-.979.224-1.526.224zm2.015 5.171c-3.505 2.589-8.589 3.958-12.964 3.958-6.13 0-11.656-2.266-15.828-6.036-.328-.297-.031-.703.365-.464 4.51 2.615 10.078 4.203 15.833 4.203 3.885 0 8.151-.813 12.083-2.469.583-.271 1.083.38.51.807zm1.459-1.661c-.448-.573-2.964-.276-4.099-.135-.339.042-.396-.26-.083-.484 2-1.401 5.286-1 5.672-.531.38.484-.109 3.771-1.979 5.344-.286.245-.568.12-.438-.203.427-1.052 1.375-3.422.927-3.99z"/></svg>