<?xml version="1.0" encoding="UTF-8"?><svg id="images" xmlns="http://www.w3.org/2000/svg" viewBox="0 0 340 340"><defs><style>.cls-1{fill:none;}.cls-2{fill:#ecebdf;}.cls-3{fill:#1c1c1c;}</style></defs><g id="foreground"><g><path class="cls-3" d="M208.55,173.67c-.19,.09-.39,.21-.58,.33,0-1.22-.65-1.82-1.11-2.47-2.18-3.12-6.39-1.94-7.63,.93-.17,.39,2.57,3.96,2.45,4.35-1.81,.81-3.56,2.68-3.91,4.32,.36-1.69-.9-2.47-2.8-1.85s-3.71,2.44-3.97,4.12c.27-1.68-1.09-2.59-3.04-2.12-1.95,.47-3.68,2.14-3.86,3.81,.18-1.67-1.28-2.72-3.25-2.42-1.96,.29-3.64,1.82-3.72,3.48,.08-1.67-1.47-2.85-3.45-2.74-1.98,.11-3.58,1.48-3.57,3.15-.02-1.66-1.64-3-3.62-3.07-1.98-.07-3.51,1.15-3.4,2.82-.11-1.67-1.82-3.15-3.78-3.41-1.97-.25-3.41,.82-3.2,2.49-.2-1.67-1.98-3.31-3.93-3.73s-3.29,.51-3,2.19c-.29-1.67-2.13-3.45-4.05-4.04-1.92-.59-3.16,.23-2.77,1.9-.39-1.68-4.62-8.77-5.08-9.82-1.24-2.87-3.63-3.78-5.68-1.91-.84,.76-1.36,2.15-.93,4.19-1.33-.37-2,.28-1.51,1.69,2.66,7.77,5.29,15.67,7.47,23.62,.93,3.4,1.9,7.8,4.63,10.34,1.96,1.81,4.41,3.07,6.77,4.09,7.04,3.02,14.85,3.94,22.12,3.99,7.79,.05,17.69-1.83,24.57-5.75,2.61-1.48,5.09-3.2,6.26-6.09,1.92-4.8,3.31-9.83,4.78-14.65,1.67-5.47,2.93-11.28,5.09-16.38,.54-1.68-.49-2.26-2.31-1.35h0Z"/><ellipse class="cls-2" cx="169.89" cy="180.55" rx="37.76" ry="15.18"/><path class="cls-2" d="M201.96,158.88c-.7-.71-1.57-1.38-2.6-1.97,0,0-24.06,7.83-40.81,6.98-16.75-.85-14.28-2.68-22.79,2.74,0,0-2.32,3.32,.51,5.34,3.71,2.64,8.39,4.82,13.52,6.49,.62-.45,1.24-.74,1.77-.74,15.97-5.55,47.02,1.48,50.39-18.84Z"/><path class="cls-3" d="M201.96,158.88c-3.36,20.33-34.42,13.3-50.38,18.84-.53,0-1.15,.28-1.77,.74,12.88,4.16,28.63,5.01,39.15,1.51,13.21-4.38,19.18-14.82,13-21.09Z"/><path class="cls-3" d="M195.14,143.9s4.56,2.7,4.56,9.69-5.81,16.05-31.61,13.46c-25.57-2.58-32.17-.39-32.17-.39,0,0-7.84-10.64,8.54-10.58,14.66,.05,36.45,1.78,41.59-1.48,7.64-4.87,7.93-5,9.1-10.7Z"/><path class="cls-3" d="M182.67,129.49c-3.55-3.83-7.74-6.95-12.6-9.13-.35-.16-.71-.11-1,.05,3.78,6.12,4.21,13.33-3.72,18.3-5.27,2.63-12.24,5.84-14.56,11.57,2.32,.6,5.49,1.15,9.61,1.28,10.12,.3,23.75-.25,26.07-4.22,2.32-3.96,.39-13.34-3.79-17.84Z"/><g><path class="cls-1" d="M151.52,148.82h0c8.03,.05,17.35,2.74,25.4,3.23-8.05-.49-17.37-3.18-25.4-3.23Z"/><path class="cls-1" d="M194.86,141.04c-.1,.5-.24,1.01-.44,1.49,.19-.49,.34-.98,.44-1.49Z"/><path class="cls-2" d="M195.87,143.34c-.2-.82-.54-1.6-1.01-2.3-.1,.51-.24,1.01-.44,1.49,.19-.49,.34-.99,.44-1.49-2.72-4.16-9.08-5.44-9.08-5.44,5.92,12.59-19.65,12.03-33.46,12,3.08-4.11,8.64-6.7,13.03-8.9,7.94-4.96,7.51-12.16,3.73-18.3-.41,.23-.65,.73-.44,1.24,.83,2,1.57,4.82,.23,6.71-2.27,3.2-6.49,4.02-13.37,7.86-6.57,3.66-9.09,7.15-9.56,11.53h0c-3.9,.41-6.2,2.22-7.55,4.21,0,0,0,0-.01,0-1.94,2.84-1.95,6.05-1.95,6.05,10.46-3.17,18.18,.02,38.29,.31,20.11,.28,22.6-8.99,21.16-14.99Zm-44.34,5.48h0c8.03,.04,17.35,2.74,25.4,3.23-8.04-.49-17.36-3.18-25.4-3.23Z"/></g><path class="cls-3" d="M208.57,179.48c-1.84,.86-3.76,2.82-4.24,4.45,.49-1.64-.65-2.33-2.53-1.64-1.89,.7-3.77,2.5-4.16,4.1,.39-1.6-.85-2.4-2.77-1.86-1.92,.54-3.76,2.19-4.05,3.77,.3-1.58-1.04-2.48-2.99-2.11-1.95,.38-3.72,1.89-3.93,3.45,.21-1.56-1.23-2.58-3.2-2.37-1.97,.22-3.67,1.59-3.78,3.14,.11-1.54-1.41-2.69-3.39-2.63-1.98,.06-3.61,1.3-3.62,2.84,.02-1.54-1.59-2.82-3.57-2.92-1.97-.1-3.52,1.02-3.44,2.57-.08-1.55-1.75-2.95-3.72-3.21-1.96-.26-3.42,.74-3.25,2.3-.18-1.56-1.91-3.11-3.86-3.52s-3.3,.46-3.04,2.05c-.27-1.59-2.06-3.27-3.98-3.85-1.91-.58-3.16,.2-2.8,1.81-.36-1.61-2.21-3.46-4.08-4.19-1.87-.73-3.01-.06-2.56,1.59-.45-1.64-2.33-3.65-4.15-4.54s-2.84-.31-2.31,1.38c2.16,5.08,3.43,10.78,5.1,16.05,1.48,4.64,2.87,9.45,4.8,13.92,1.17,2.7,3.63,4.13,6.27,5.32,7.54,3.4,16.35,4.28,24.52,4.35,7.38,.08,15.03-.57,22.07-2.91,2.37-.79,4.82-1.77,6.78-3.34,2.74-2.19,3.71-6.38,4.65-9.61,2.24-7.75,4.88-15.31,7.48-22.95,.57-1.69-.44-2.29-2.27-1.43Z"/><g><circle class="cls-2" cx="147.15" cy="157.01" r="1.68"/><circle class="cls-2" cx="158.05" cy="163.09" r="1.68"/><circle class="cls-3" cx="147.57" cy="169.38" r="1.68"/><circle class="cls-2" cx="159.94" cy="144.63" r="1.68"/><circle class="cls-3" cx="168.96" cy="156.17" r="1.68"/><circle class="cls-2" cx="196.44" cy="168.75" r="1.68"/><circle class="cls-2" cx="175.88" cy="138.55" r="1.68"/><circle class="cls-2" cx="184.69" cy="158.06" r="1.68"/><circle class="cls-3" cx="188.88" cy="145.47" r="1.68"/><circle class="cls-3" cx="176.93" cy="170.85" r="1.68"/></g></g></g></svg>